<?xml version="1.0" standalone="no"?>
<!DOCTYPE svg PUBLIC "-//W3C//DTD SVG 20010904//EN"
 "http://www.w3.org/TR/2001/REC-SVG-20010904/DTD/svg10.dtd">
<svg version="1.0" xmlns="http://www.w3.org/2000/svg"
 width="700.000000pt" height="700.000000pt" viewBox="0 0 700.000000 700.000000"
 preserveAspectRatio="xMidYMid meet">
<metadata>
Created by potrace 1.14, written by Peter Selinger 2001-2017
</metadata>
<g transform="translate(0.000000,700.000000) scale(0.100000,-0.100000)"
fill="#000000" stroke="none">
<path d="M0 3500 l0 -3500 3500 0 3500 0 0 3500 0 3500 -3500 0 -3500 0 0
-3500z m3970 3147 c201 -32 378 -85 512 -153 278 -141 522 -471 613 -829 44
-174 46 -220 42 -980 -4 -787 -3 -768 -65 -928 -71 -184 -219 -330 -468 -463
l-91 -49 24 -35 c13 -19 40 -65 59 -103 35 -68 35 -69 602 -2212 l148 -560
-520 -3 c-286 -1 -523 1 -527 5 -4 5 -131 521 -283 1148 -152 627 -281 1157
-287 1178 l-10 37 -319 0 -320 0 0 -1185 0 -1185 -475 0 -475 0 -2 1308 -3
1307 -27 58 c-34 72 -121 159 -207 207 -99 55 -126 75 -129 92 -2 10 28 40 81
81 113 89 191 176 235 266 l37 75 3 1460 c1 804 4 1467 7 1474 4 11 167 12
872 9 752 -3 882 -6 973 -20z"/>
<path d="M3077 4703 c-1 -544 -6 -998 -11 -1010 l-8 -23 328 0 c373 0 421 6
535 66 130 69 240 209 268 342 7 35 11 249 11 643 0 567 -1 592 -20 650 -56
165 -184 272 -366 304 -57 10 -170 14 -406 15 l-328 0 -3 -987z"/>
</g>
</svg>
