<svg width="320" height="163" viewBox="0 0 320 163" fill="none" xmlns="http://www.w3.org/2000/svg">
<path d="M7.99443 158.657C7.83348 159.219 7.83348 159.815 7.99443 160.377C8.36281 161.187 9.26705 161.591 10.6401 161.591C11.2307 161.589 11.8176 161.498 12.3815 161.321C12.8338 161.217 13.2484 160.988 13.5794 160.661C13.9105 160.333 14.145 159.92 14.2569 159.467C14.2569 158.792 14.2569 158.32 13.922 158.05C13.3781 157.677 12.7617 157.424 12.1136 157.309L10.5397 156.938C9.7883 156.818 9.06983 156.542 8.42981 156.128C8.09488 155.864 7.85022 155.501 7.73014 155.09C7.61006 154.679 7.62052 154.24 7.75998 153.835C7.97888 152.745 8.58645 151.774 9.46797 151.104C10.4374 150.39 11.6161 150.022 12.8169 150.059C13.9224 149.997 15.0138 150.332 15.8979 151.003C16.2841 151.378 16.5556 151.857 16.6802 152.383C16.8048 152.909 16.7774 153.46 16.6012 153.97H15.0942C15.1867 153.456 15.1164 152.925 14.8932 152.453C14.5248 151.812 13.7545 151.509 12.5489 151.509C11.7553 151.459 10.9675 151.673 10.3052 152.116C9.84347 152.468 9.51315 152.967 9.36751 153.532C9.28471 153.772 9.28609 154.033 9.37139 154.273C9.45669 154.512 9.62072 154.715 9.8363 154.847C10.4949 155.165 11.1934 155.392 11.9126 155.521L13.5202 155.926C14.154 156.04 14.7512 156.306 15.2616 156.702C15.5963 157.011 15.8347 157.411 15.9476 157.854C16.0606 158.297 16.0433 158.764 15.8979 159.197C15.803 159.811 15.5654 160.393 15.2046 160.897C14.8438 161.401 14.3699 161.812 13.8215 162.097C12.7097 162.695 11.4648 162.996 10.2047 162.974C9.59713 163.043 8.98184 162.976 8.40293 162.777C7.82402 162.579 7.29576 162.255 6.8558 161.827C6.50017 161.392 6.25858 160.873 6.15327 160.32C6.04796 159.766 6.08221 159.194 6.25292 158.657H7.99443Z" fill="white"/>
<path d="M41.2966 152.166C41.9441 153.465 42.0688 154.948 41.6466 156.331C41.3072 158.038 40.4557 159.614 39.1967 160.865C38.5171 161.559 37.6913 162.107 36.7741 162.472C35.857 162.837 34.8694 163.01 33.877 162.98C33.0696 163.053 32.2565 162.921 31.5193 162.597C30.7821 162.273 30.1467 161.768 29.6772 161.133C28.9143 159.738 28.7389 158.115 29.1873 156.599C29.5092 155.023 30.2714 153.56 31.3922 152.367C32.0636 151.634 32.8936 151.049 33.8245 150.655C34.7553 150.26 35.7645 150.065 36.7818 150.084C37.6629 149.982 38.5562 150.123 39.3561 150.492C40.156 150.861 40.8292 151.442 41.2966 152.166ZM39.8967 156.498C40.2278 155.373 40.0898 154.169 39.5118 153.14C39.1893 152.697 38.7513 152.343 38.2415 152.113C37.7318 151.883 37.1681 151.786 36.6069 151.83C35.3112 151.834 34.0636 152.301 33.1071 153.14C32.0025 154.171 31.2672 155.511 31.0071 156.969C30.7236 158.091 30.8343 159.272 31.3221 160.327C31.6808 160.804 32.1638 161.183 32.7228 161.424C33.2817 161.666 33.8969 161.763 34.507 161.704C35.173 161.71 35.8322 161.575 36.4373 161.308C37.0423 161.041 37.5783 160.649 38.0068 160.159C38.9539 159.115 39.6048 157.854 39.8967 156.498V156.498Z" fill="white"/>
<path d="M59.3931 151.575L57.9892 158.594C57.8258 159.269 57.8258 159.978 57.9892 160.653C58.1321 161.06 58.4016 161.404 58.7528 161.625C59.1041 161.846 59.5159 161.933 59.9196 161.869C60.4465 161.909 60.9742 161.807 61.4545 161.572C61.9348 161.338 62.3523 160.979 62.6689 160.528C63.052 159.95 63.3116 159.29 63.4293 158.594L64.804 151.575H66.2664L65.0087 157.814C64.8068 158.923 64.4099 159.982 63.8388 160.933C63.3762 161.611 62.7617 162.155 62.0516 162.515C61.3415 162.874 60.5582 163.038 59.7733 162.992C57.9599 162.992 56.8778 162.306 56.5268 160.933C56.3104 159.906 56.3104 158.841 56.5268 157.814L57.8137 151.575H59.3931Z" fill="white"/>
<path d="M81.6186 151.575H83.4291L87.2062 160.834L89.1729 151.575H90.6401L88.2052 163H86.4883L82.6174 153.584L80.682 163H79.2148L81.6186 151.575Z" fill="white"/>
<path d="M106.574 151.589H110.765C111.355 151.53 111.949 151.654 112.478 151.948C113.007 152.242 113.451 152.693 113.758 153.251C114.283 154.452 114.394 155.822 114.072 157.106C113.846 158.286 113.41 159.404 112.789 160.398C112.35 161.202 111.726 161.866 110.981 162.322C110.236 162.779 109.394 163.012 108.541 162.999H104.351L106.574 151.589ZM108.541 161.683C108.947 161.691 109.351 161.628 109.738 161.495C110.353 161.286 110.899 160.882 111.306 160.335C111.716 159.819 112.035 159.224 112.247 158.58C112.39 158.141 112.504 157.764 112.589 157.388C112.844 156.353 112.794 155.256 112.447 154.254C112.214 153.841 111.877 153.512 111.477 153.307C111.077 153.101 110.632 153.027 110.195 153.094H107.714L106.033 161.84L108.541 161.683Z" fill="white"/>
<path d="M147.952 151.602H152.711C153.2 151.529 153.699 151.602 154.148 151.813C154.598 152.024 154.978 152.364 155.243 152.792C155.43 153.317 155.43 153.894 155.243 154.419C155.13 155.105 154.797 155.733 154.297 156.203C153.978 156.464 153.63 156.685 153.26 156.861C153.691 157.012 154.078 157.27 154.389 157.612C154.594 157.901 154.732 158.236 154.79 158.589C154.848 158.942 154.826 159.304 154.725 159.646C154.562 160.412 154.18 161.11 153.626 161.65C153.165 162.103 152.62 162.456 152.022 162.688C151.424 162.919 150.787 163.024 150.149 162.995H145.481L147.952 151.602ZM150.576 161.681C151.207 161.734 151.836 161.551 152.347 161.166C152.857 160.78 153.214 160.218 153.352 159.584C153.456 159.259 153.439 158.906 153.303 158.594C153.168 158.281 152.924 158.032 152.62 157.894C152.15 157.725 151.653 157.651 151.155 157.675H148.105L147.281 161.681H150.576ZM151.155 156.423C151.678 156.446 152.199 156.35 152.681 156.141C152.983 156.005 153.247 155.793 153.45 155.525C153.652 155.257 153.786 154.942 153.84 154.607C153.992 153.856 153.84 153.355 153.26 153.105C152.804 152.925 152.314 152.851 151.827 152.886H149.142L148.44 156.423H151.155Z" fill="white"/>
<path d="M171.618 151.58H177.125C177.867 151.547 178.606 151.676 179.289 151.956C179.784 152.199 180.169 152.609 180.369 153.107C180.568 153.605 180.569 154.156 180.37 154.654C180.246 155.275 179.965 155.857 179.551 156.349C179.138 156.786 178.636 157.139 178.076 157.384C178.45 157.518 178.763 157.773 178.961 158.106C179.123 158.574 179.123 159.08 178.961 159.549L178.699 161.055C178.646 161.377 178.646 161.705 178.699 162.027C178.699 162.404 178.698 162.624 179.059 162.718V163H177.092C177.074 162.865 177.074 162.728 177.092 162.592C177.092 162.592 177.092 162.153 177.092 161.714L177.42 159.8C177.42 159.047 177.42 158.545 176.895 158.294C176.443 158.144 175.964 158.08 175.486 158.106H171.814L170.733 163H169.094L171.618 151.58ZM175.781 156.819C176.444 156.838 177.101 156.687 177.682 156.38C177.956 156.2 178.188 155.968 178.363 155.698C178.538 155.428 178.652 155.126 178.699 154.811C178.862 153.996 178.698 153.431 178.141 153.148C177.74 152.976 177.301 152.901 176.863 152.929H172.863L171.978 156.819H175.781Z" fill="white"/>
<path d="M199.993 151.575H202.062L204.131 163H202.1L201.573 159.579H196.194L193.825 163H191.944L199.993 151.575ZM201.31 158.323L200.52 153.27L197.022 158.323H201.31Z" fill="white"/>
<path d="M220.276 151.575H222.086L225.864 160.834L227.799 151.575H229.266L226.863 163H225.146L221.275 153.584L219.308 163H217.841L220.276 151.575Z" fill="white"/>
<path d="M244.753 151.589H249.597C250.28 151.53 250.966 151.654 251.578 151.948C252.19 152.242 252.702 152.693 253.058 153.251C253.679 154.448 253.809 155.823 253.42 157.106C253.171 158.284 252.678 159.403 251.97 160.398C251.46 161.2 250.739 161.862 249.878 162.318C249.017 162.775 248.045 163.01 247.06 163H242.215L244.753 151.589ZM247.027 161.683C247.496 161.696 247.964 161.632 248.411 161.495C249.126 161.295 249.759 160.89 250.223 160.335C250.697 159.819 251.066 159.224 251.311 158.58C251.493 158.199 251.626 157.799 251.706 157.388C252.068 156.372 252.068 155.27 251.706 154.254C251.449 153.838 251.066 153.506 250.608 153.299C250.15 153.092 249.637 153.021 249.136 153.094H246.269L244.291 161.84L247.027 161.683Z" fill="white"/>
<path d="M269.102 151.575H271.159L267.926 163H265.827L269.102 151.575Z" fill="white"/>
<path d="M286.542 151.575H288.353L292.13 160.834L294.066 151.575H295.533L293.129 163H291.412L287.541 153.584L285.575 163H284.107L286.542 151.575Z" fill="white"/>
<path d="M318.489 150.542C318.992 150.897 319.391 151.406 319.636 152.007C319.881 152.608 319.962 153.276 319.869 153.927H318.366C318.389 153.556 318.331 153.184 318.198 152.843C318.065 152.501 317.86 152.2 317.599 151.964C317.002 151.524 316.292 151.31 315.575 151.355C314.511 151.369 313.492 151.829 312.724 152.641C311.759 153.664 311.123 155.007 310.914 156.465C310.621 157.64 310.685 158.889 311.098 160.019C311.358 160.503 311.74 160.892 312.198 161.139C312.656 161.385 313.169 161.478 313.674 161.407C314.647 161.419 315.597 161.074 316.373 160.425C317.236 159.637 317.813 158.531 317.998 157.311H314.502L314.778 155.924H319.654L318.396 162.693H317.415V161.102C316.935 161.603 316.399 162.036 315.821 162.388C314.986 162.817 314.073 163.026 313.153 162.997C312.579 163.018 312.008 162.902 311.479 162.656C310.95 162.411 310.475 162.043 310.086 161.576C309.67 160.861 309.399 160.055 309.293 159.214C309.187 158.372 309.249 157.515 309.473 156.702C309.795 154.811 310.667 153.088 311.957 151.795C313.058 150.671 314.506 150.054 316.005 150.068C316.856 149.995 317.709 150.158 318.489 150.542Z" fill="white"/>
<path d="M7.43757 1.52338H35.1447C46.1892 1.52338 54.063 3.77508 58.766 8.27852C61.7182 11.1668 64.0196 14.6501 65.5168 18.4963C67.0139 22.3424 67.6724 26.463 67.4484 30.5833V51.5179C67.4484 58.3368 65.5012 62.6384 61.6388 64.4866L54.4248 68.0235V68.7563C54.4248 68.7563 54.9035 70.0627 55.8612 72.357C56.1758 73.5334 56.7543 74.623 57.553 75.5434C58.0211 76.1169 61.6389 89.9883 68.4061 117.158L71.5981 128.724H50.5623L39.0071 81.0877H26.2388V128.565H7.08639V77.2959C7.08639 74.1095 4.97963 71.656 0.702259 69.8397L0 69.1387V68.4058L5.04352 64.0723C6.31607 62.706 7.01323 60.9033 6.99063 59.0378V2.00132C7.01191 1.68268 7.16092 1.52338 7.43757 1.52338ZM26.2388 21.2472V58.7829C26.2137 59.7694 26.0415 60.7466 25.728 61.6825H38.0175C40.3795 61.6804 42.6751 60.9023 44.55 59.4684C46.425 58.0344 47.775 56.0244 48.3917 53.7484C48.5359 53.0343 48.6214 52.3096 48.6472 51.5816V31.125C48.8295 29.0097 48.2473 26.8991 47.0061 25.175C45.7649 23.4509 43.9465 22.2272 41.8799 21.7251C40.5426 21.3999 39.1704 21.2394 37.7941 21.2472H26.2388Z" fill="white"/>
<path d="M74.6671 1.52338H92.9253V59.3333C92.9253 62.1408 90.7952 64.6293 86.5045 66.7988L86.048 67.5326V68.4897C90.643 70.7549 92.9253 73.5624 92.9253 76.9123V128.724H74.6671V77.1676C74.6671 73.5943 72.3848 70.7868 67.7898 68.4897V67.054C72.3848 64.8526 74.6671 61.9494 74.6671 58.3761V1.52338Z" fill="white"/>
<path d="M99.0188 1.52338H159.192V21.0486H138.813V58.8547C138.813 62.0451 136.563 64.7569 132.03 66.7988L131.548 67.5326V68.1069C132.813 69.4085 134.291 70.4874 135.92 71.2972C136.744 71.8832 137.431 72.6406 137.93 73.5167C138.43 74.3928 138.731 75.3665 138.813 76.37V128.724H119.526V77.3909C119.526 73.4986 117.116 70.5315 112.262 68.4897V67.5326C113.783 66.1087 115.491 64.8959 117.341 63.9274C118.074 63.1513 118.645 62.2384 119.02 61.2417C119.395 60.2449 119.567 59.1842 119.526 58.1209V21.0486H99.1474L99.0188 1.52338Z" fill="white"/>
<path d="M164.975 1.52338H192.454C199.359 36.9367 203.118 56.5257 203.732 60.2904C203.732 62.5556 201.826 64.8846 197.982 67.2774C197.982 68.1069 199.825 69.4468 203.51 71.393C204.705 72.2287 205.678 73.3466 206.343 74.6483C207.008 75.95 207.344 77.3957 207.322 78.8585C208.427 83.3095 209.307 87.8137 209.959 92.3539H210.213C211.95 82.57 213.009 77.1888 213.39 76.2104C213.256 74.5093 212.644 72.8812 211.627 71.5148C210.609 70.1483 209.227 69.0994 207.64 68.4897V67.5326L213.993 63.1937C215.918 60.9838 217.038 58.1827 217.17 55.2496C223.524 20.6657 226.881 2.75699 227.241 1.52338H253.64V59.5885C253.64 63.0022 251.385 65.7141 246.905 67.7559L246.429 68.4897V68.9683C248.107 70.3615 249.868 71.6507 251.702 72.8286C252.673 73.9233 253.341 75.2543 253.64 76.689V128.724H234.579V77.1676C234.579 74.4238 232.26 71.7758 227.622 69.2235C227.573 68.8604 227.405 68.5238 227.145 68.2664C228.534 66.8651 230.158 65.7204 231.942 64.8846C232.849 64.1029 233.56 63.1182 234.018 62.0098C234.476 60.9014 234.668 59.7005 234.579 58.5038V49.5707H234.325C232.895 58.4081 231.688 62.8108 230.735 62.8108C230.735 63.417 228.575 64.8845 224.382 67.1497L223.651 68.1387C223.651 68.6811 224.858 69.8935 227.273 71.7439C228.347 72.9524 229.014 74.471 229.179 76.0828L217.869 128.724H202.747C202.334 128.724 201.477 125.183 200.111 118.1L189.786 74.7429C187.91 72.3087 185.436 70.4066 182.606 69.2235C182.183 68.8859 181.697 68.6364 181.177 68.4897V67.5326C184.354 64.6932 186.196 62.8427 186.196 61.9813C186.349 61.4302 186.434 60.8623 186.45 60.2904L184.29 49.9535H184.036V58.8547C184.036 62.0451 181.971 64.7569 177.682 67.054L176.952 68.0111V68.4897C178.617 69.8987 180.38 71.1887 182.225 72.3501C183.333 73.6068 183.934 75.2339 183.909 76.9123V128.724H164.848V76.4338C163.317 73.5753 160.864 71.325 157.891 70.053C157.869 69.8055 157.793 69.5658 157.668 69.3511C157.668 68.9044 159.511 67.4688 163.164 65.0122C164.228 63.5336 164.816 61.7633 164.848 59.9395L164.975 1.52338Z" fill="white"/>
<path d="M288.22 0H291.112C301.812 0 310.531 5.78171 317.268 17.3451C318.916 21.0641 319.813 25.0737 319.906 29.1423V59.4643C319.906 62.6528 317.586 65.4586 312.946 67.6586L312.692 68.1369V68.6152C314.332 70.0565 316.098 71.3476 317.968 72.4732C319.221 73.759 319.918 75.4893 319.906 77.2877V100.372C319.906 112.105 313.984 121.182 302.14 127.601C298.116 129.307 293.797 130.206 289.428 130.248C277.521 130.248 268.325 124.222 261.842 112.169C260.263 108.437 259.442 104.426 259.426 100.372V77.6703C259.348 75.869 258.685 74.1427 257.537 72.7552C256.389 71.3677 254.82 70.3952 253.07 69.9862C252.596 69.5274 252.265 68.9404 252.117 68.2963C256.757 65.1079 259.077 62.4615 259.077 60.5803C259.226 59.792 259.3 58.9913 259.299 58.189V29.3017C259.299 18.6736 264.745 10.0011 275.635 3.28409C279.535 1.26662 283.834 0.144835 288.22 0ZM278.146 30.0989V58.5397C278.146 61.9407 276.027 64.5871 271.789 66.4789L271.09 67.4354V67.9137C272.585 69.3482 274.275 70.5615 276.112 71.5167C276.817 72.2079 277.373 73.0373 277.744 73.9534C278.116 74.8694 278.296 75.8525 278.273 76.8413V99.4473C278.228 101.881 279.013 104.258 280.499 106.183C281.984 108.108 284.08 109.467 286.44 110.033C287.06 110.212 287.703 110.298 288.347 110.288H290.667C293.145 110.037 295.426 108.824 297.024 106.908C298.901 104.885 299.926 102.211 299.884 99.4473V77.6703C299.875 75.7662 299.25 73.9165 298.104 72.3988C296.958 70.881 295.352 69.7771 293.528 69.2529C293.528 68.934 293.051 68.6152 292.32 68.2963C292.32 67.3398 293.687 66.1919 296.388 64.9166C297.48 64.1816 298.364 63.176 298.954 61.9972C299.544 60.8184 299.821 59.5066 299.757 58.189V30.2583C299.853 27.7112 299.033 25.2145 297.445 23.2241C295.858 21.2338 293.61 19.8827 291.112 19.4176L288.729 19.1944C283.517 19.1944 280.021 22.064 278.177 27.835C278.103 28.5874 278.092 29.3447 278.146 30.0989Z" fill="white"/>
</svg>
